<svg xmlns="http://www.w3.org/2000/svg" xmlns:xlink="http://www.w3.org/1999/xlink" width="1024" height="400">\n<path  d="M 0 0
L 1024 0
L 1024 400
L 0 400
L 0 0" style="stroke-width:0;stroke:rgba(255,255,255,1.0);fill:rgba(255,255,255,1.0)"/><path  d="M 38 11
L 979 11
L 979 351
L 38 351
L 38 11" style="stroke-width:0;stroke:rgba(255,255,255,1.0);fill:rgba(255,255,255,1.0)"/><path  d="M 38 351
L 979 351" style="stroke-width:2;stroke:rgba(85,85,85,1.0);fill:none"/><path  d="M 38 351
L 38 356" style="stroke-width:2;stroke:rgba(85,85,85,1.0);fill:none"/><text x="5" y="373" style="stroke-width:0;stroke:none;fill:rgba(51,51,51,1.0);font-size:12.8px;font-family:'Roboto Medium',sans-serif">2021-08-30</text><path  d="M 156 351
L 156 356" style="stroke-width:2;stroke:rgba(85,85,85,1.0);fill:none"/><text x="123" y="373" style="stroke-width:0;stroke:none;fill:rgba(51,51,51,1.0);font-size:12.8px;font-family:'Roboto Medium',sans-serif">2021-09-14</text><path  d="M 274 351
L 274 356" style="stroke-width:2;stroke:rgba(85,85,85,1.0);fill:none"/><text x="241" y="373" style="stroke-width:0;stroke:none;fill:rgba(51,51,51,1.0);font-size:12.8px;font-family:'Roboto Medium',sans-serif">2021-09-29</text><path  d="M 391 351
L 391 356" style="stroke-width:2;stroke:rgba(85,85,85,1.0);fill:none"/><text x="358" y="373" style="stroke-width:0;stroke:none;fill:rgba(51,51,51,1.0);font-size:12.8px;font-family:'Roboto Medium',sans-serif">2021-10-14</text><path  d="M 509 351
L 509 356" style="stroke-width:2;stroke:rgba(85,85,85,1.0);fill:none"/><text x="476" y="373" style="stroke-width:0;stroke:none;fill:rgba(51,51,51,1.0);font-size:12.8px;font-family:'Roboto Medium',sans-serif">2021-10-29</text><path  d="M 627 351
L 627 356" style="stroke-width:2;stroke:rgba(85,85,85,1.0);fill:none"/><text x="594" y="373" style="stroke-width:0;stroke:none;fill:rgba(51,51,51,1.0);font-size:12.8px;font-family:'Roboto Medium',sans-serif">2021-11-14</text><path  d="M 744 351
L 744 356" style="stroke-width:2;stroke:rgba(85,85,85,1.0);fill:none"/><text x="711" y="373" style="stroke-width:0;stroke:none;fill:rgba(51,51,51,1.0);font-size:12.8px;font-family:'Roboto Medium',sans-serif">2021-11-29</text><path  d="M 862 351
L 862 356" style="stroke-width:2;stroke:rgba(85,85,85,1.0);fill:none"/><text x="829" y="373" style="stroke-width:0;stroke:none;fill:rgba(51,51,51,1.0);font-size:12.8px;font-family:'Roboto Medium',sans-serif">2021-12-14</text><path  d="M 979 351
L 979 356" style="stroke-width:2;stroke:rgba(85,85,85,1.0);fill:none"/><text x="946" y="373" style="stroke-width:0;stroke:none;fill:rgba(51,51,51,1.0);font-size:12.8px;font-family:'Roboto Medium',sans-serif">2021-12-29</text><text x="494" y="395" style="stroke-width:0;stroke:none;fill:rgba(51,51,51,1.0);font-size:12.8px;font-family:'Roboto Medium',sans-serif">Time</text><path  d="M 981 351
L 981 11" style="stroke-width:2;stroke:rgba(85,85,85,1.0);fill:none"/><path  d="M 981 351
L 986 351" style="stroke-width:2;stroke:rgba(85,85,85,1.0);fill:none"/><text x="991" y="357" style="stroke-width:0;stroke:none;fill:rgba(51,51,51,1.0);font-size:12.8px;font-family:'Roboto Medium',sans-serif">0</text><path  d="M 981 308
L 986 308" style="stroke-width:2;stroke:rgba(85,85,85,1.0);fill:none"/><text x="991" y="314" style="stroke-width:0;stroke:none;fill:rgba(51,51,51,1.0);font-size:12.8px;font-family:'Roboto Medium',sans-serif">1</text><path  d="M 981 266
L 986 266" style="stroke-width:2;stroke:rgba(85,85,85,1.0);fill:none"/><text x="991" y="272" style="stroke-width:0;stroke:none;fill:rgba(51,51,51,1.0);font-size:12.8px;font-family:'Roboto Medium',sans-serif">2</text><path  d="M 981 223
L 986 223" style="stroke-width:2;stroke:rgba(85,85,85,1.0);fill:none"/><text x="991" y="229" style="stroke-width:0;stroke:none;fill:rgba(51,51,51,1.0);font-size:12.8px;font-family:'Roboto Medium',sans-serif">3</text><path  d="M 981 181
L 986 181" style="stroke-width:2;stroke:rgba(85,85,85,1.0);fill:none"/><text x="991" y="187" style="stroke-width:0;stroke:none;fill:rgba(51,51,51,1.0);font-size:12.8px;font-family:'Roboto Medium',sans-serif">4</text><path  d="M 981 138
L 986 138" style="stroke-width:2;stroke:rgba(85,85,85,1.0);fill:none"/><text x="991" y="144" style="stroke-width:0;stroke:none;fill:rgba(51,51,51,1.0);font-size:12.8px;font-family:'Roboto Medium',sans-serif">5</text><path  d="M 981 96
L 986 96" style="stroke-width:2;stroke:rgba(85,85,85,1.0);fill:none"/><text x="991" y="102" style="stroke-width:0;stroke:none;fill:rgba(51,51,51,1.0);font-size:12.8px;font-family:'Roboto Medium',sans-serif">6</text><path  d="M 981 53
L 986 53" style="stroke-width:2;stroke:rgba(85,85,85,1.0);fill:none"/><text x="991" y="59" style="stroke-width:0;stroke:none;fill:rgba(51,51,51,1.0);font-size:12.8px;font-family:'Roboto Medium',sans-serif">7</text><path  d="M 981 11
L 986 11" style="stroke-width:2;stroke:rgba(85,85,85,1.0);fill:none"/><text x="991" y="17" style="stroke-width:0;stroke:none;fill:rgba(51,51,51,1.0);font-size:12.8px;font-family:'Roboto Medium',sans-serif">8</text><text x="1009" y="150" style="stroke-width:0;stroke:none;fill:rgba(51,51,51,1.0);font-size:12.8px;font-family:'Roboto Medium',sans-serif" transform="rotate(90.00,1009,150)">Stargazers</text><path  d="M 38 351
L 813 308
L 813 266
L 891 223
L 971 181
L 972 138
L 975 96
L 976 53
L 979 11" style="stroke-width:2;stroke:rgba(129,199,239,1.0);fill:none"/></svg>